# xmcd
#
# Track frame offsets: 
#        150
#        14453
#        30584
#        45089
#        61240
#        83255
#        99913
#        117427
#        134476
#        151349
#        170334
#        184274
#
# Disc length: 2697 seconds
#
# Revision: 0
# Processed by: cddbd v1.5.2PL0 Copyright (c) Steve Scherf et al.
# Submitted via: ExactAudioCopy v1.2
#
DISCID=870a870c
DTITLE=Big Papa and the TCB - Let Your Hair Down
DYEAR=2017
DGENRE=Blues
TTITLE0=Get Yo Self Together
TTITLE1=California Summer Blues
TTITLE2=It's up to You
TTITLE3=A Day Late and a Dollar Short
TTITLE4=In the Dawg House
TTITLE5=Let Your Hair Down
TTITLE6=Tattoos and Jello Shots
TTITLE7=That's My Story
TTITLE8=My Only, My Everything, My Love
TTITLE9=The Player
TTITLE10=Suga Mama
TTITLE11=Could You Give Me a Dollar?
EXTD=
EXTT0=
EXTT1=
EXTT2=
EXTT3=
EXTT4=
EXTT5=
EXTT6=
EXTT7=
EXTT8=
EXTT9=
EXTT10=
EXTT11=
PLAYORDER=
